<?xml version="1.0" standalone="no"?>
<!DOCTYPE svg PUBLIC "-//W3C//DTD SVG 20010904//EN"
 "http://www.w3.org/TR/2001/REC-SVG-20010904/DTD/svg10.dtd">
<svg version="1.0" xmlns="http://www.w3.org/2000/svg"
 width="512.000000pt" height="512.000000pt" viewBox="0 0 512.000000 512.000000"
 preserveAspectRatio="xMidYMid meet">
<metadata>
Created by potrace 1.14, written by Peter Selinger 2001-2017
</metadata>
<g transform="translate(0.000000,512.000000) scale(0.100000,-0.100000)"
fill="#000000" stroke="none">
<path d="M2378 5116 c-1 -2 -34 -6 -73 -10 -38 -3 -97 -10 -130 -16 -33 -6
-76 -13 -95 -16 -19 -3 -51 -9 -70 -14 -19 -5 -46 -11 -60 -14 -58 -11 -232
-66 -320 -101 -106 -42 -337 -155 -380 -185 -16 -11 -31 -20 -34 -20 -9 0
-214 -147 -269 -192 -26 -22 -53 -38 -60 -35 -7 2 -19 17 -27 33 -8 16 -17 31
-21 34 -12 11 -49 110 -55 149 -10 60 -19 58 -34 -7 -7 -31 -17 -66 -23 -77
-6 -11 -12 -26 -13 -33 -1 -8 -10 -22 -18 -31 -9 -10 -16 -22 -16 -28 0 -21
-118 -120 -176 -147 -62 -29 -75 -34 -137 -43 -47 -7 -43 -11 29 -28 93 -22
214 -84 214 -110 0 -5 -13 -24 -28 -41 -15 -17 -36 -43 -47 -59 -11 -15 -34
-46 -51 -69 -52 -71 -134 -196 -134 -205 0 -5 -3 -11 -7 -13 -13 -5 -128 -243
-173 -359 -35 -87 -93 -278 -104 -339 -2 -14 -7 -36 -10 -50 -44 -190 -65
-557 -44 -780 16 -166 83 -481 123 -577 9 -20 13 -44 10 -52 -3 -9 -3 -12 1
-8 4 4 29 -45 55 -109 165 -398 414 -722 794 -1033 85 -69 258 -178 392 -247
56 -28 99 -55 95 -59 -4 -5 -2 -5 4 -2 6 4 47 -9 90 -27 198 -83 421 -143 639
-172 187 -25 558 -25 695 0 14 3 41 7 60 10 19 3 60 10 90 16 30 7 68 14 85
17 53 9 277 81 370 118 458 184 866 510 1147 916 72 104 168 264 168 280 0 6
5 7 12 3 6 -4 8 -3 4 4 -3 6 2 26 12 44 25 46 85 190 112 268 12 36 26 74 31
85 10 23 55 202 64 254 3 19 7 37 9 40 3 5 9 42 22 131 14 101 19 189 19 345
0 219 -10 337 -45 505 -6 30 -14 66 -16 80 -12 61 -74 266 -99 325 -6 17 -25
62 -41 100 -33 81 -149 310 -164 325 -30 30 -30 38 -4 96 28 64 45 103 51 119
45 130 82 246 86 270 3 17 11 59 17 95 16 87 17 265 2 317 -19 65 -54 99 -115
114 -86 20 -200 19 -347 -5 -51 -8 -120 -26 -201 -53 -46 -15 -86 -27 -89 -28
-3 -1 -16 -6 -30 -12 -14 -6 -50 -21 -80 -33 -30 -12 -65 -28 -78 -36 -20 -13
-26 -13 -55 3 -17 10 -39 23 -47 29 -26 21 -272 141 -350 172 -79 31 -223 80
-256 87 -10 2 -55 13 -99 24 -44 11 -97 22 -119 25 -21 4 -41 8 -45 10 -3 2
-35 7 -71 11 -36 4 -74 9 -85 12 -22 5 -451 13 -457 9z"/>
</g>
</svg>
